<svg width="44" height="44" viewBox="0 0 44 44" fill="none" xmlns="http://www.w3.org/2000/svg">
<rect width="44" height="44" fill="#FF385C"/>
<path d="M36.0213 28.6914C35.8822 28.302 35.7196 27.9253 35.565 27.5763C35.3269 27.0394 35.0775 26.5015 34.8363 25.9815L34.8172 25.9402C32.666 21.2954 30.3571 16.5871 27.9547 11.9461L27.8527 11.749C27.6077 11.2751 27.3543 10.7851 27.0943 10.3036C26.786 9.69429 26.4119 9.1202 25.9786 8.59152C25.4909 8.01137 24.8812 7.54478 24.1926 7.22466C23.5039 6.90454 22.7531 6.73867 21.993 6.73877C21.2329 6.73886 20.4822 6.90491 19.7935 7.22521C19.105 7.5455 18.4954 8.01225 18.0079 8.59252C17.5751 9.12132 17.2012 9.69528 16.8928 10.3043C16.6305 10.7901 16.3748 11.2847 16.1275 11.763L16.0328 11.9461C13.6304 16.5873 11.3215 21.2957 9.17031 25.9401L9.13896 26.0077C8.90194 26.5192 8.65689 27.0482 8.42276 27.5761C8.26805 27.9248 8.10568 28.3013 7.96641 28.6916C7.56752 29.755 7.44041 30.9004 7.59651 32.0248C7.76205 33.1611 8.22299 34.2347 8.93367 35.1392C9.64434 36.0437 10.5801 36.7477 11.6483 37.1815C12.4551 37.507 13.3178 37.6734 14.1884 37.6714C14.4618 37.6713 14.7351 37.6555 15.0067 37.624C16.1078 37.4841 17.1697 37.1268 18.1302 36.5732C19.3901 35.8675 20.6345 34.8332 21.9938 33.3552C23.3531 34.8332 24.5974 35.8675 25.8574 36.5732C26.8178 37.1269 27.8798 37.4841 28.9808 37.624C29.2525 37.6555 29.5258 37.6713 29.7993 37.6714C30.6698 37.6734 31.5323 37.507 32.3391 37.1815C33.4073 36.7477 34.3431 36.0437 35.0539 35.1392C35.7646 34.2347 36.2256 33.1612 36.3912 32.0248C36.547 30.9003 36.42 29.7549 36.0213 28.6914ZM21.9938 30.3027C20.3111 28.176 19.2312 26.201 18.8524 24.5453C18.6972 23.925 18.6605 23.2811 18.7444 22.6471C18.8106 22.1825 18.9818 21.7388 19.2451 21.3494C19.5691 20.9305 19.9855 20.5912 20.4621 20.3577C20.9387 20.1244 21.4628 20.003 21.994 20.003C22.5252 20.0031 23.0493 20.1245 23.5259 20.358C24.0024 20.5915 24.4187 20.9308 24.7427 21.3497C25.0061 21.7393 25.1773 22.183 25.2435 22.6477C25.3271 23.2819 25.2904 23.926 25.1349 24.5466C24.7556 26.2021 23.6761 28.1765 21.9938 30.3027ZM34.4257 31.7448C34.31 32.5393 33.9876 33.29 33.4908 33.9224C32.9938 34.5549 32.3395 35.0472 31.5926 35.3505C30.8374 35.6522 30.0178 35.7591 29.21 35.6613C28.3703 35.5534 27.5611 35.2779 26.8311 34.8511C25.7096 34.2229 24.5743 33.2585 23.2969 31.8437C25.3305 29.3434 26.6005 27.0388 27.0707 24.9861C27.2823 24.1229 27.3282 23.2277 27.2059 22.3477C27.095 21.5895 26.8127 20.8663 26.3803 20.2325C25.8737 19.5487 25.2129 18.9927 24.4511 18.6097C23.6892 18.2266 22.8476 18.027 21.994 18.027C21.1404 18.027 20.2987 18.2265 19.5368 18.6095C18.7749 18.9925 18.1141 19.5483 17.6076 20.2321C17.1752 20.8657 16.893 21.5888 16.7819 22.3467C16.6596 23.2265 16.7053 24.1212 16.9164 24.9841C17.3863 27.0377 18.6563 29.3428 20.6907 31.8439C19.4132 33.2585 18.278 34.2229 17.1564 34.8512C16.4264 35.2779 15.6173 35.5535 14.7776 35.6613C13.9697 35.7591 13.1501 35.6522 12.3948 35.3505C11.648 35.0472 10.9937 34.5549 10.4968 33.9225C9.99989 33.29 9.67764 32.5393 9.56194 31.7448C9.45065 30.9372 9.54536 30.1147 9.83734 29.3531C9.94833 29.042 10.0782 28.7367 10.2391 28.374C10.4667 27.8609 10.7083 27.3394 10.942 26.8351L10.9734 26.7674C13.1125 22.1489 15.4086 17.4668 17.798 12.8508L17.8931 12.667C18.1363 12.1965 18.3879 11.7099 18.6417 11.2398C18.8845 10.7552 19.1783 10.2977 19.5183 9.87495C19.8195 9.51211 20.1976 9.21997 20.6255 9.01942C21.0534 8.81886 21.5205 8.71484 21.9934 8.71481C22.4663 8.71477 22.9335 8.81871 23.3613 9.01919C23.7893 9.21968 24.1674 9.51176 24.4687 9.87456C24.8089 10.297 25.1028 10.7543 25.3454 11.2389C25.5969 11.7048 25.8462 12.187 26.0874 12.6533L26.1896 12.851C28.5789 17.4665 30.8749 22.1486 33.0143 26.7678L33.0336 26.8093C33.2713 27.3221 33.517 27.8521 33.7484 28.3742C33.9096 28.7374 34.0397 29.043 34.1504 29.3529C34.4422 30.1146 34.5369 30.9371 34.4257 31.7448Z" fill="white"/>
</svg>
